<svg xmlns="http://www.w3.org/2000/svg" xmlns:xlink="http://www.w3.org/1999/xlink" width="2000" zoomAndPan="magnify" viewBox="0 0 1500 1499.999933" height="2000" preserveAspectRatio="xMidYMid meet" version="1.0"><defs><clipPath id="20f32d6ec6"><path d="M 4 128 L 1486 128 L 1486 1386.9375 L 4 1386.9375 Z M 4 128 " clip-rule="nonzero"/></clipPath><clipPath id="561bf804f2"><path d="M 409 611 L 720 611 L 720 1055 L 409 1055 Z M 409 611 " clip-rule="nonzero"/></clipPath><clipPath id="898afcb455"><path d="M 701.074219 611.394531 L 878.457031 890.554688 L 531.566406 1110.976562 L 354.179688 831.816406 Z M 701.074219 611.394531 " clip-rule="nonzero"/></clipPath><clipPath id="ece55faed2"><path d="M 701.074219 611.394531 L 878.457031 890.554688 L 531.566406 1110.976562 L 354.179688 831.816406 Z M 701.074219 611.394531 " clip-rule="nonzero"/></clipPath><clipPath id="384fc4f379"><path d="M 701.074219 611.394531 L 878.457031 890.554688 L 531.566406 1110.976562 L 354.179688 831.816406 Z M 701.074219 611.394531 " clip-rule="nonzero"/></clipPath><clipPath id="d8a84fe9d3"><path d="M 701.050781 611.40625 L 878.449219 890.59375 L 531.558594 1111.011719 L 354.160156 831.828125 Z M 701.050781 611.40625 " clip-rule="nonzero"/></clipPath></defs><path fill="#fcb111" d="M 159.191406 1012.140625 C 197.949219 991.710938 246.460938 1006.914062 267.152344 1046.039062 C 287.738281 1085.136719 272.871094 1133.75 234.082031 1154.183594 C 195.246094 1174.671875 146.816406 1159.410156 126.226562 1120.285156 C 105.585938 1081.21875 120.457031 1032.628906 159.191406 1012.140625 M 130.28125 713.695312 L 1032.683594 238.058594 C 1090.34375 207.683594 1103.808594 227.246094 1131.261719 279.460938 L 1403.285156 795.496094 C 1424.394531 835.582031 1409.160156 885.597656 1369.332031 906.601562 L 929.0625 1138.695312 L 1024.003906 719.601562 C 1029.359375 700.453125 1009.238281 683 990.9375 690.9375 L 840.472656 757.371094 L 881.804688 414.992188 C 884.144531 395.0625 859.808594 380.78125 843.589844 392.648438 L 591.792969 576.90625 C 587.453125 580.023438 581.734375 592.085938 582.121094 597.53125 L 604.269531 1058.910156 C 605.101562 1075.652344 623.949219 1086.753906 639.054688 1079.210938 L 799.394531 999.875 L 795.132812 1209.296875 L 499.039062 1365.375 C 483.546875 1373.488281 462.59375 1382.5625 446.371094 1374.628906 L 70.933594 1191.671875 C 46.808594 1179.894531 34.796875 1156.890625 38.648438 1130.320312 L 92.871094 751.933594 C 95.527344 734.050781 114.890625 721.882812 130.28125 713.695312 Z M 130.28125 713.695312 " fill-opacity="1" fill-rule="evenodd"/><g clip-path="url(#20f32d6ec6)"><path fill="#1f1a17" d="M 191.164062 1029.351562 C 185.679688 1029.351562 180.375 1030.648438 175.488281 1033.226562 C 167.613281 1037.382812 161.789062 1044.484375 159.085938 1053.117188 C 156.410156 1061.746094 157.292969 1070.84375 161.453125 1078.800781 C 169.902344 1094.761719 190.902344 1101.519531 206.996094 1092.992188 C 214.976562 1088.78125 220.828125 1081.707031 223.53125 1073.078125 C 226.207031 1064.421875 225.375 1055.296875 221.191406 1047.394531 C 215.371094 1036.265625 203.851562 1029.351562 191.164062 1029.351562 M 191.453125 1135.3125 C 164.492188 1135.3125 139.980469 1120.546875 127.476562 1096.734375 C 118.453125 1079.785156 116.664062 1060.207031 122.355469 1041.753906 C 128.074219 1023.296875 140.578125 1008.21875 157.578125 999.199219 C 191.839844 981.078125 237.308594 995.351562 255.246094 1029.457031 C 264.238281 1046.484375 266.007812 1066.011719 260.289062 1084.464844 C 254.515625 1102.921875 241.988281 1118.050781 224.933594 1126.992188 C 214.691406 1132.449219 203.074219 1135.3125 191.453125 1135.3125 Z M 1083.117188 166.671875 C 1072.25 166.671875 1061.847656 169.21875 1052.230469 174.277344 L 138.421875 656.011719 C 120.117188 665.628906 110.269531 674.335938 109.097656 681.902344 L 43.429688 1113.109375 C 40.570312 1132.347656 48.992188 1148.308594 66.570312 1156.839844 L 459.421875 1346.402344 C 467.894531 1350.351562 486.25 1342.65625 497.320312 1336.886719 L 775.21875 1190.371094 L 778.648438 1021.914062 L 645.082031 1088 C 618.695312 1101.101562 583.730469 1080.410156 582.300781 1051.136719 L 559.917969 585.273438 C 559.242188 573.457031 568.027344 554.894531 577.597656 547.941406 L 831.785156 361.964844 C 849.203125 349.191406 875.664062 352.867188 890.222656 369.183594 C 898.4375 378.449219 902.183594 390.25 900.726562 402.339844 L 863.1875 714.5 L 984.175781 661.105469 C 1002.628906 653.148438 1024.464844 659.269531 1036.53125 675.195312 C 1044.800781 686.085938 1047.449219 699.789062 1043.808594 712.785156 L 949.859375 1098.292969 L 1411.183594 855.128906 C 1443.679688 837.96875 1456.15625 797.570312 1439.050781 765.066406 L 1142.441406 202.222656 C 1130.847656 180.296875 1108.125 166.671875 1083.117188 166.671875 Z M 465.710938 1386.070312 C 457.339844 1386.070312 449.59375 1384.378906 442.652344 1381 L 49.824219 1191.460938 C 16.964844 1175.527344 0.0195312 1143.316406 5.425781 1107.339844 L 71.089844 676.132812 C 75.300781 648.640625 101.296875 632.039062 120.53125 621.96875 L 1034.347656 140.257812 C 1084.261719 114.066406 1150.292969 134.8125 1176.441406 184.285156 L 1473.054688 747.128906 C 1500.089844 798.40625 1480.390625 862.144531 1429.121094 889.179688 L 930.050781 1152.210938 C 923.394531 1155.691406 915.230469 1154.964844 909.253906 1150.363281 C 903.273438 1145.710938 900.621094 1137.960938 902.441406 1130.632812 L 1006.632812 703.0625 C 1004.710938 696.925781 1002.945312 695.925781 1001.332031 695.925781 L 847.796875 763.347656 C 841.5625 766.285156 834.175781 765.296875 828.5625 761.242188 C 823 757.109375 820.136719 750.347656 820.972656 743.460938 L 862.566406 397.792969 C 860.175781 393.269531 858.199219 392.332031 856.484375 392.332031 L 600.214844 579.035156 C 600.472656 579.191406 598.550781 583.285156 598.265625 585.015625 L 620.675781 1049.265625 C 620.828125 1051.867188 623.871094 1053.945312 626.316406 1053.945312 L 789.988281 973.382812 C 796.019531 970.476562 803.140625 970.808594 808.808594 974.398438 C 814.527344 978.011719 817.90625 984.277344 817.75 991.007812 L 813.433594 1202.457031 C 813.277344 1209.480469 809.382812 1215.824219 803.195312 1219.09375 L 515.210938 1370.886719 C 501.742188 1377.960938 483.960938 1386.070312 465.710938 1386.070312 Z M 465.710938 1386.070312 " fill-opacity="1" fill-rule="evenodd"/></g><g clip-path="url(#561bf804f2)"><g clip-path="url(#898afcb455)"><g clip-path="url(#ece55faed2)"><g clip-path="url(#384fc4f379)"><g clip-path="url(#d8a84fe9d3)"><path fill="#1d1d1b" d="M 719.308594 991.726562 L 701.054688 611.40625 L 409.234375 850.503906 L 544.3125 871.714844 L 544.832031 871.941406 L 475.734375 1023.160156 L 545.105469 1054.789062 L 614.511719 902.890625 L 614.949219 903.082031 L 719.308594 991.726562 " fill-opacity="1" fill-rule="nonzero"/></g></g></g></g></g></svg>